<svg width="436" height="52" viewBox="0 0 436 52" fill="none" xmlns="http://www.w3.org/2000/svg">
<rect width="150" height="52" rx="26" fill="white"/>
<path d="M31.22 33C30.9267 32.5067 30.5867 31.9533 30.2 31.34C29.8267 30.7267 29.42 30.0933 28.98 29.44C28.54 28.7733 28.08 28.1 27.6 27.42C27.1333 26.74 26.6667 26.0867 26.2 25.46C25.7333 24.82 25.28 24.22 24.84 23.66C24.4 23.1 23.9933 22.6067 23.62 22.18V33H21.72V19.14H23.26C23.8867 19.8067 24.5533 20.5867 25.26 21.48C25.98 22.36 26.6867 23.2733 27.38 24.22C28.0867 25.1533 28.7467 26.0733 29.36 26.98C29.9867 27.8867 30.5133 28.6933 30.94 29.4V19.14H32.84V33H31.22ZM45.3308 27.8C45.3308 28.6267 45.2108 29.3733 44.9708 30.04C44.7308 30.7067 44.3908 31.28 43.9508 31.76C43.5241 32.24 43.0108 32.6133 42.4108 32.88C41.8108 33.1333 41.1574 33.26 40.4508 33.26C39.7441 33.26 39.0908 33.1333 38.4908 32.88C37.8908 32.6133 37.3708 32.24 36.9308 31.76C36.5041 31.28 36.1708 30.7067 35.9308 30.04C35.6908 29.3733 35.5708 28.6267 35.5708 27.8C35.5708 26.9867 35.6908 26.2467 35.9308 25.58C36.1708 24.9 36.5041 24.32 36.9308 23.84C37.3708 23.36 37.8908 22.9933 38.4908 22.74C39.0908 22.4733 39.7441 22.34 40.4508 22.34C41.1574 22.34 41.8108 22.4733 42.4108 22.74C43.0108 22.9933 43.5241 23.36 43.9508 23.84C44.3908 24.32 44.7308 24.9 44.9708 25.58C45.2108 26.2467 45.3308 26.9867 45.3308 27.8ZM43.3908 27.8C43.3908 26.6267 43.1241 25.7 42.5908 25.02C42.0708 24.3267 41.3574 23.98 40.4508 23.98C39.5441 23.98 38.8241 24.3267 38.2908 25.02C37.7708 25.7 37.5108 26.6267 37.5108 27.8C37.5108 28.9733 37.7708 29.9067 38.2908 30.6C38.8241 31.28 39.5441 31.62 40.4508 31.62C41.3574 31.62 42.0708 31.28 42.5908 30.6C43.1241 29.9067 43.3908 28.9733 43.3908 27.8ZM50.3677 31.66C51.1277 31.66 51.6877 31.56 52.0477 31.36C52.421 31.16 52.6077 30.84 52.6077 30.4C52.6077 29.9467 52.4277 29.5867 52.0677 29.32C51.7077 29.0533 51.1143 28.7533 50.2877 28.42C49.8877 28.26 49.501 28.1 49.1277 27.94C48.7677 27.7667 48.4543 27.5667 48.1877 27.34C47.921 27.1133 47.7077 26.84 47.5477 26.52C47.3877 26.2 47.3077 25.8067 47.3077 25.34C47.3077 24.42 47.6477 23.6933 48.3277 23.16C49.0077 22.6133 49.9343 22.34 51.1077 22.34C51.401 22.34 51.6943 22.36 51.9877 22.4C52.281 22.4267 52.5543 22.4667 52.8077 22.52C53.061 22.56 53.281 22.6067 53.4677 22.66C53.6677 22.7133 53.821 22.76 53.9277 22.8L53.5877 24.4C53.3877 24.2933 53.0743 24.1867 52.6477 24.08C52.221 23.96 51.7077 23.9 51.1077 23.9C50.5877 23.9 50.1343 24.0067 49.7477 24.22C49.361 24.42 49.1677 24.74 49.1677 25.18C49.1677 25.4067 49.2077 25.6067 49.2877 25.78C49.381 25.9533 49.5143 26.1133 49.6877 26.26C49.8743 26.3933 50.101 26.52 50.3677 26.64C50.6343 26.76 50.9543 26.8867 51.3277 27.02C51.821 27.2067 52.261 27.3933 52.6477 27.58C53.0343 27.7533 53.361 27.96 53.6277 28.2C53.9077 28.44 54.121 28.7333 54.2677 29.08C54.4143 29.4133 54.4877 29.8267 54.4877 30.32C54.4877 31.28 54.1277 32.0067 53.4077 32.5C52.701 32.9933 51.6877 33.24 50.3677 33.24C49.4477 33.24 48.7277 33.16 48.2077 33C47.6877 32.8533 47.3343 32.74 47.1477 32.66L47.4877 31.06C47.701 31.14 48.041 31.26 48.5077 31.42C48.9743 31.58 49.5943 31.66 50.3677 31.66ZM59.2934 31.66C60.0534 31.66 60.6134 31.56 60.9734 31.36C61.3468 31.16 61.5334 30.84 61.5334 30.4C61.5334 29.9467 61.3534 29.5867 60.9934 29.32C60.6334 29.0533 60.0401 28.7533 59.2134 28.42C58.8134 28.26 58.4268 28.1 58.0534 27.94C57.6934 27.7667 57.3801 27.5667 57.1134 27.34C56.8468 27.1133 56.6334 26.84 56.4734 26.52C56.3134 26.2 56.2334 25.8067 56.2334 25.34C56.2334 24.42 56.5734 23.6933 57.2534 23.16C57.9334 22.6133 58.8601 22.34 60.0334 22.34C60.3268 22.34 60.6201 22.36 60.9134 22.4C61.2068 22.4267 61.4801 22.4667 61.7334 22.52C61.9868 22.56 62.2068 22.6067 62.3934 22.66C62.5934 22.7133 62.7468 22.76 62.8534 22.8L62.5134 24.4C62.3134 24.2933 62.0001 24.1867 61.5734 24.08C61.1468 23.96 60.6334 23.9 60.0334 23.9C59.5134 23.9 59.0601 24.0067 58.6734 24.22C58.2868 24.42 58.0934 24.74 58.0934 25.18C58.0934 25.4067 58.1334 25.6067 58.2134 25.78C58.3068 25.9533 58.4401 26.1133 58.6134 26.26C58.8001 26.3933 59.0268 26.52 59.2934 26.64C59.5601 26.76 59.8801 26.8867 60.2534 27.02C60.7468 27.2067 61.1868 27.3933 61.5734 27.58C61.9601 27.7533 62.2868 27.96 62.5534 28.2C62.8334 28.44 63.0468 28.7333 63.1934 29.08C63.3401 29.4133 63.4134 29.8267 63.4134 30.32C63.4134 31.28 63.0534 32.0067 62.3334 32.5C61.6268 32.9933 60.6134 33.24 59.2934 33.24C58.3734 33.24 57.6534 33.16 57.1334 33C56.6134 32.8533 56.2601 32.74 56.0734 32.66L56.4134 31.06C56.6268 31.14 56.9668 31.26 57.4334 31.42C57.9001 31.58 58.5201 31.66 59.2934 31.66ZM69.3192 31.66C69.7592 31.66 70.1459 31.6533 70.4792 31.64C70.8259 31.6133 71.1126 31.5733 71.3392 31.52V28.42C71.2059 28.3533 70.9859 28.3 70.6792 28.26C70.3859 28.2067 70.0259 28.18 69.5992 28.18C69.3192 28.18 69.0192 28.2 68.6992 28.24C68.3926 28.28 68.1059 28.3667 67.8392 28.5C67.5859 28.62 67.3726 28.7933 67.1992 29.02C67.0259 29.2333 66.9392 29.52 66.9392 29.88C66.9392 30.5467 67.1526 31.0133 67.5792 31.28C68.0059 31.5333 68.5859 31.66 69.3192 31.66ZM69.1592 22.34C69.9059 22.34 70.5326 22.44 71.0392 22.64C71.5592 22.8267 71.9726 23.1 72.2792 23.46C72.5992 23.8067 72.8259 24.2267 72.9592 24.72C73.0926 25.2 73.1592 25.7333 73.1592 26.32V32.82C72.9992 32.8467 72.7726 32.8867 72.4792 32.94C72.1992 32.98 71.8792 33.02 71.5192 33.06C71.1592 33.1 70.7659 33.1333 70.3392 33.16C69.9259 33.2 69.5126 33.22 69.0992 33.22C68.5126 33.22 67.9726 33.16 67.4792 33.04C66.9859 32.92 66.5592 32.7333 66.1992 32.48C65.8392 32.2133 65.5592 31.8667 65.3592 31.44C65.1592 31.0133 65.0592 30.5 65.0592 29.9C65.0592 29.3267 65.1726 28.8333 65.3992 28.42C65.6392 28.0067 65.9592 27.6733 66.3592 27.42C66.7592 27.1667 67.2259 26.98 67.7592 26.86C68.2926 26.74 68.8526 26.68 69.4392 26.68C69.6259 26.68 69.8192 26.6933 70.0192 26.72C70.2192 26.7333 70.4059 26.76 70.5792 26.8C70.7659 26.8267 70.9259 26.8533 71.0592 26.88C71.1926 26.9067 71.2859 26.9267 71.3392 26.94V26.42C71.3392 26.1133 71.3059 25.8133 71.2392 25.52C71.1726 25.2133 71.0526 24.9467 70.8792 24.72C70.7059 24.48 70.4659 24.2933 70.1592 24.16C69.8659 24.0133 69.4792 23.94 68.9992 23.94C68.3859 23.94 67.8459 23.9867 67.3792 24.08C66.9259 24.16 66.5859 24.2467 66.3592 24.34L66.1392 22.8C66.3792 22.6933 66.7792 22.5933 67.3392 22.5C67.8992 22.3933 68.5059 22.34 69.1592 22.34ZM78.6684 31.66C79.4284 31.66 79.9884 31.56 80.3484 31.36C80.7218 31.16 80.9084 30.84 80.9084 30.4C80.9084 29.9467 80.7284 29.5867 80.3684 29.32C80.0084 29.0533 79.4151 28.7533 78.5884 28.42C78.1884 28.26 77.8018 28.1 77.4284 27.94C77.0684 27.7667 76.7551 27.5667 76.4884 27.34C76.2218 27.1133 76.0084 26.84 75.8484 26.52C75.6884 26.2 75.6084 25.8067 75.6084 25.34C75.6084 24.42 75.9484 23.6933 76.6284 23.16C77.3084 22.6133 78.2351 22.34 79.4084 22.34C79.7018 22.34 79.9951 22.36 80.2884 22.4C80.5818 22.4267 80.8551 22.4667 81.1084 22.52C81.3618 22.56 81.5818 22.6067 81.7684 22.66C81.9684 22.7133 82.1218 22.76 82.2284 22.8L81.8884 24.4C81.6884 24.2933 81.3751 24.1867 80.9484 24.08C80.5218 23.96 80.0084 23.9 79.4084 23.9C78.8884 23.9 78.4351 24.0067 78.0484 24.22C77.6618 24.42 77.4684 24.74 77.4684 25.18C77.4684 25.4067 77.5084 25.6067 77.5884 25.78C77.6818 25.9533 77.8151 26.1133 77.9884 26.26C78.1751 26.3933 78.4018 26.52 78.6684 26.64C78.9351 26.76 79.2551 26.8867 79.6284 27.02C80.1218 27.2067 80.5618 27.3933 80.9484 27.58C81.3351 27.7533 81.6618 27.96 81.9284 28.2C82.2084 28.44 82.4218 28.7333 82.5684 29.08C82.7151 29.4133 82.7884 29.8267 82.7884 30.32C82.7884 31.28 82.4284 32.0067 81.7084 32.5C81.0018 32.9933 79.9884 33.24 78.6684 33.24C77.7484 33.24 77.0284 33.16 76.5084 33C75.9884 32.8533 75.6351 32.74 75.4484 32.66L75.7884 31.06C76.0018 31.14 76.3418 31.26 76.8084 31.42C77.2751 31.58 77.8951 31.66 78.6684 31.66ZM92.9231 33.2C91.7765 33.1733 90.9631 32.9267 90.4831 32.46C90.0031 31.9933 89.7631 31.2667 89.7631 30.28V17.8L91.6231 17.48V29.98C91.6231 30.2867 91.6498 30.54 91.7031 30.74C91.7565 30.94 91.8431 31.1 91.9631 31.22C92.0831 31.34 92.2431 31.4333 92.4431 31.5C92.6431 31.5533 92.8898 31.6 93.1831 31.64L92.9231 33.2ZM104.452 27.8C104.452 28.6267 104.332 29.3733 104.092 30.04C103.852 30.7067 103.512 31.28 103.072 31.76C102.645 32.24 102.132 32.6133 101.532 32.88C100.932 33.1333 100.279 33.26 99.5719 33.26C98.8652 33.26 98.2119 33.1333 97.6119 32.88C97.0119 32.6133 96.4919 32.24 96.0519 31.76C95.6252 31.28 95.2919 30.7067 95.0519 30.04C94.8119 29.3733 94.6919 28.6267 94.6919 27.8C94.6919 26.9867 94.8119 26.2467 95.0519 25.58C95.2919 24.9 95.6252 24.32 96.0519 23.84C96.4919 23.36 97.0119 22.9933 97.6119 22.74C98.2119 22.4733 98.8652 22.34 99.5719 22.34C100.279 22.34 100.932 22.4733 101.532 22.74C102.132 22.9933 102.645 23.36 103.072 23.84C103.512 24.32 103.852 24.9 104.092 25.58C104.332 26.2467 104.452 26.9867 104.452 27.8ZM102.512 27.8C102.512 26.6267 102.245 25.7 101.712 25.02C101.192 24.3267 100.479 23.98 99.5719 23.98C98.6652 23.98 97.9452 24.3267 97.4119 25.02C96.8919 25.7 96.6319 26.6267 96.6319 27.8C96.6319 28.9733 96.8919 29.9067 97.4119 30.6C97.9452 31.28 98.6652 31.62 99.5719 31.62C100.479 31.62 101.192 31.28 101.712 30.6C102.245 29.9067 102.512 28.9733 102.512 27.8ZM105.369 36.74C105.209 36.74 105.002 36.72 104.749 36.68C104.495 36.64 104.282 36.5867 104.109 36.52L104.349 35C104.482 35.04 104.635 35.0733 104.809 35.1C104.982 35.1267 105.142 35.14 105.289 35.14C105.929 35.14 106.382 34.94 106.649 34.54C106.929 34.1533 107.069 33.58 107.069 32.82V22.6H108.929V32.8C108.929 34.1333 108.622 35.12 108.009 35.76C107.409 36.4133 106.529 36.74 105.369 36.74ZM107.989 20.72C107.655 20.72 107.369 20.6133 107.129 20.4C106.902 20.1733 106.789 19.8733 106.789 19.5C106.789 19.1267 106.902 18.8333 107.129 18.62C107.369 18.3933 107.655 18.28 107.989 18.28C108.322 18.28 108.602 18.3933 108.829 18.62C109.069 18.8333 109.189 19.1267 109.189 19.5C109.189 19.8733 109.069 20.1733 108.829 20.4C108.602 20.6133 108.322 20.72 107.989 20.72ZM115.647 31.66C116.087 31.66 116.474 31.6533 116.807 31.64C117.154 31.6133 117.441 31.5733 117.667 31.52V28.42C117.534 28.3533 117.314 28.3 117.007 28.26C116.714 28.2067 116.354 28.18 115.927 28.18C115.647 28.18 115.347 28.2 115.027 28.24C114.721 28.28 114.434 28.3667 114.167 28.5C113.914 28.62 113.701 28.7933 113.527 29.02C113.354 29.2333 113.267 29.52 113.267 29.88C113.267 30.5467 113.481 31.0133 113.907 31.28C114.334 31.5333 114.914 31.66 115.647 31.66ZM115.487 22.34C116.234 22.34 116.861 22.44 117.367 22.64C117.887 22.8267 118.301 23.1 118.607 23.46C118.927 23.8067 119.154 24.2267 119.287 24.72C119.421 25.2 119.487 25.7333 119.487 26.32V32.82C119.327 32.8467 119.101 32.8867 118.807 32.94C118.527 32.98 118.207 33.02 117.847 33.06C117.487 33.1 117.094 33.1333 116.667 33.16C116.254 33.2 115.841 33.22 115.427 33.22C114.841 33.22 114.301 33.16 113.807 33.04C113.314 32.92 112.887 32.7333 112.527 32.48C112.167 32.2133 111.887 31.8667 111.687 31.44C111.487 31.0133 111.387 30.5 111.387 29.9C111.387 29.3267 111.501 28.8333 111.727 28.42C111.967 28.0067 112.287 27.6733 112.687 27.42C113.087 27.1667 113.554 26.98 114.087 26.86C114.621 26.74 115.181 26.68 115.767 26.68C115.954 26.68 116.147 26.6933 116.347 26.72C116.547 26.7333 116.734 26.76 116.907 26.8C117.094 26.8267 117.254 26.8533 117.387 26.88C117.521 26.9067 117.614 26.9267 117.667 26.94V26.42C117.667 26.1133 117.634 25.8133 117.567 25.52C117.501 25.2133 117.381 24.9467 117.207 24.72C117.034 24.48 116.794 24.2933 116.487 24.16C116.194 24.0133 115.807 23.94 115.327 23.94C114.714 23.94 114.174 23.9867 113.707 24.08C113.254 24.16 112.914 24.2467 112.687 24.34L112.467 22.8C112.707 22.6933 113.107 22.5933 113.667 22.5C114.227 22.3933 114.834 22.34 115.487 22.34ZM124.997 31.66C125.757 31.66 126.317 31.56 126.677 31.36C127.05 31.16 127.237 30.84 127.237 30.4C127.237 29.9467 127.057 29.5867 126.697 29.32C126.337 29.0533 125.743 28.7533 124.917 28.42C124.517 28.26 124.13 28.1 123.757 27.94C123.397 27.7667 123.083 27.5667 122.817 27.34C122.55 27.1133 122.337 26.84 122.177 26.52C122.017 26.2 121.937 25.8067 121.937 25.34C121.937 24.42 122.277 23.6933 122.957 23.16C123.637 22.6133 124.563 22.34 125.737 22.34C126.03 22.34 126.323 22.36 126.617 22.4C126.91 22.4267 127.183 22.4667 127.437 22.52C127.69 22.56 127.91 22.6067 128.097 22.66C128.297 22.7133 128.45 22.76 128.557 22.8L128.217 24.4C128.017 24.2933 127.703 24.1867 127.277 24.08C126.85 23.96 126.337 23.9 125.737 23.9C125.217 23.9 124.763 24.0067 124.377 24.22C123.99 24.42 123.797 24.74 123.797 25.18C123.797 25.4067 123.837 25.6067 123.917 25.78C124.01 25.9533 124.143 26.1133 124.317 26.26C124.503 26.3933 124.73 26.52 124.997 26.64C125.263 26.76 125.583 26.8867 125.957 27.02C126.45 27.2067 126.89 27.3933 127.277 27.58C127.663 27.7533 127.99 27.96 128.257 28.2C128.537 28.44 128.75 28.7333 128.897 29.08C129.043 29.4133 129.117 29.8267 129.117 30.32C129.117 31.28 128.757 32.0067 128.037 32.5C127.33 32.9933 126.317 33.24 124.997 33.24C124.077 33.24 123.357 33.16 122.837 33C122.317 32.8533 121.963 32.74 121.777 32.66L122.117 31.06C122.33 31.14 122.67 31.26 123.137 31.42C123.603 31.58 124.223 31.66 124.997 31.66Z" fill="#333333"/>
<rect x="150" width="94" height="52" rx="26" fill="white"/>
<path d="M174.94 31.62C176.967 31.62 177.98 30.9267 177.98 29.54C177.98 29.1133 177.887 28.7533 177.7 28.46C177.527 28.1533 177.287 27.8933 176.98 27.68C176.673 27.4533 176.32 27.26 175.92 27.1C175.533 26.94 175.12 26.78 174.68 26.62C174.173 26.4467 173.693 26.2533 173.24 26.04C172.787 25.8133 172.393 25.5533 172.06 25.26C171.727 24.9533 171.46 24.5933 171.26 24.18C171.073 23.7667 170.98 23.2667 170.98 22.68C170.98 21.4667 171.393 20.52 172.22 19.84C173.047 19.16 174.187 18.82 175.64 18.82C176.48 18.82 177.24 18.9133 177.92 19.1C178.613 19.2733 179.12 19.4667 179.44 19.68L178.82 21.26C178.54 21.0867 178.12 20.92 177.56 20.76C177.013 20.5867 176.373 20.5 175.64 20.5C175.267 20.5 174.92 20.54 174.6 20.62C174.28 20.7 174 20.82 173.76 20.98C173.52 21.14 173.327 21.3467 173.18 21.6C173.047 21.84 172.98 22.1267 172.98 22.46C172.98 22.8333 173.053 23.1467 173.2 23.4C173.347 23.6533 173.553 23.88 173.82 24.08C174.087 24.2667 174.393 24.44 174.74 24.6C175.1 24.76 175.493 24.92 175.92 25.08C176.52 25.32 177.067 25.56 177.56 25.8C178.067 26.04 178.5 26.3267 178.86 26.66C179.233 26.9933 179.52 27.3933 179.72 27.86C179.92 28.3133 180.02 28.8667 180.02 29.52C180.02 30.7333 179.573 31.6667 178.68 32.32C177.8 32.9733 176.553 33.3 174.94 33.3C174.393 33.3 173.887 33.26 173.42 33.18C172.967 33.1133 172.56 33.0333 172.2 32.94C171.84 32.8333 171.527 32.7267 171.26 32.62C171.007 32.5 170.807 32.4 170.66 32.32L171.24 30.72C171.547 30.8933 172.013 31.0867 172.64 31.3C173.267 31.5133 174.033 31.62 174.94 31.62ZM191.425 27.8C191.425 28.6267 191.305 29.3733 191.065 30.04C190.825 30.7067 190.485 31.28 190.045 31.76C189.618 32.24 189.105 32.6133 188.505 32.88C187.905 33.1333 187.251 33.26 186.545 33.26C185.838 33.26 185.185 33.1333 184.585 32.88C183.985 32.6133 183.465 32.24 183.025 31.76C182.598 31.28 182.265 30.7067 182.025 30.04C181.785 29.3733 181.665 28.6267 181.665 27.8C181.665 26.9867 181.785 26.2467 182.025 25.58C182.265 24.9 182.598 24.32 183.025 23.84C183.465 23.36 183.985 22.9933 184.585 22.74C185.185 22.4733 185.838 22.34 186.545 22.34C187.251 22.34 187.905 22.4733 188.505 22.74C189.105 22.9933 189.618 23.36 190.045 23.84C190.485 24.32 190.825 24.9 191.065 25.58C191.305 26.2467 191.425 26.9867 191.425 27.8ZM189.485 27.8C189.485 26.6267 189.218 25.7 188.685 25.02C188.165 24.3267 187.451 23.98 186.545 23.98C185.638 23.98 184.918 24.3267 184.385 25.02C183.865 25.7 183.605 26.6267 183.605 27.8C183.605 28.9733 183.865 29.9067 184.385 30.6C184.918 31.28 185.638 31.62 186.545 31.62C187.451 31.62 188.165 31.28 188.685 30.6C189.218 29.9067 189.485 28.9733 189.485 27.8ZM195.901 23.06C196.128 22.9133 196.468 22.76 196.921 22.6C197.388 22.44 197.921 22.36 198.521 22.36C199.268 22.36 199.928 22.4933 200.501 22.76C201.088 23.0267 201.581 23.4 201.981 23.88C202.381 24.36 202.681 24.9333 202.881 25.6C203.095 26.2667 203.201 27 203.201 27.8C203.201 28.64 203.075 29.4 202.821 30.08C202.581 30.7467 202.235 31.3133 201.781 31.78C201.328 32.2467 200.781 32.6067 200.141 32.86C199.501 33.1133 198.781 33.24 197.981 33.24C197.115 33.24 196.348 33.18 195.681 33.06C195.015 32.94 194.468 32.82 194.041 32.7V17.8L195.901 17.48V23.06ZM195.901 31.38C196.088 31.4333 196.348 31.4867 196.681 31.54C197.028 31.58 197.455 31.6 197.961 31.6C198.961 31.6 199.761 31.2733 200.361 30.62C200.961 29.9533 201.261 29.0133 201.261 27.8C201.261 27.2667 201.208 26.7667 201.101 26.3C200.995 25.8333 200.821 25.4333 200.581 25.1C200.341 24.7533 200.028 24.4867 199.641 24.3C199.268 24.1 198.815 24 198.281 24C197.775 24 197.308 24.0867 196.881 24.26C196.455 24.4333 196.128 24.6133 195.901 24.8V31.38ZM209.659 22.38C209.819 22.38 209.999 22.3933 210.199 22.42C210.412 22.4333 210.619 22.46 210.819 22.5C211.019 22.5267 211.199 22.56 211.359 22.6C211.532 22.6267 211.659 22.6533 211.739 22.68L211.419 24.3C211.272 24.2467 211.025 24.1867 210.679 24.12C210.345 24.04 209.912 24 209.379 24C209.032 24 208.685 24.04 208.339 24.12C208.005 24.1867 207.785 24.2333 207.679 24.26V33H205.819V23.04C206.259 22.88 206.805 22.7333 207.459 22.6C208.112 22.4533 208.845 22.38 209.659 22.38ZM212.954 27.82C212.954 26.9 213.087 26.1 213.354 25.42C213.62 24.7267 213.974 24.1533 214.414 23.7C214.854 23.2467 215.36 22.9067 215.934 22.68C216.507 22.4533 217.094 22.34 217.694 22.34C219.094 22.34 220.167 22.78 220.914 23.66C221.66 24.5267 222.034 25.8533 222.034 27.64C222.034 27.72 222.034 27.8267 222.034 27.96C222.034 28.08 222.027 28.1933 222.014 28.3H214.894C214.974 29.38 215.287 30.2 215.834 30.76C216.38 31.32 217.234 31.6 218.394 31.6C219.047 31.6 219.594 31.5467 220.034 31.44C220.487 31.32 220.827 31.2067 221.054 31.1L221.314 32.66C221.087 32.78 220.687 32.9067 220.114 33.04C219.554 33.1733 218.914 33.24 218.194 33.24C217.287 33.24 216.5 33.1067 215.834 32.84C215.18 32.56 214.64 32.18 214.214 31.7C213.787 31.22 213.467 30.6533 213.254 30C213.054 29.3333 212.954 28.6067 212.954 27.82ZM220.094 26.8C220.107 25.96 219.894 25.2733 219.454 24.74C219.027 24.1933 218.434 23.92 217.674 23.92C217.247 23.92 216.867 24.0067 216.534 24.18C216.214 24.34 215.94 24.5533 215.714 24.82C215.487 25.0867 215.307 25.3933 215.174 25.74C215.054 26.0867 214.974 26.44 214.934 26.8H220.094Z" fill="#333333"/>
<rect x="244" y="2" width="64" height="48" rx="24" fill="white"/>
<path d="M276 26.0999C274.717 26.0999 273.618 25.6545 272.704 24.7635C271.79 23.8724 271.333 22.8012 271.333 21.55C271.333 20.2987 271.79 19.2276 272.704 18.3367C273.618 17.4456 274.717 17 276 17C277.283 17 278.382 17.4456 279.296 18.3367C280.21 19.2276 280.667 20.2987 280.667 21.55C280.667 22.8012 280.21 23.8724 279.296 24.7635C278.382 25.6545 277.283 26.0999 276 26.0999ZM266 34.025V33.1098C266 32.4732 266.177 31.8837 266.532 31.3412C266.887 30.7986 267.361 30.3816 267.954 30.0899C269.272 29.4601 270.601 28.9876 271.942 28.6726C273.283 28.3576 274.636 28.2001 276 28.2001C277.364 28.2001 278.717 28.3576 280.058 28.6726C281.399 28.9876 282.728 29.4601 284.046 30.0899C284.639 30.3816 285.113 30.7986 285.468 31.3412C285.823 31.8837 286 32.4732 286 33.1098V34.025C286 34.5732 285.803 35.0394 285.409 35.4238C285.015 35.8079 284.537 36 283.974 36H268.026C267.463 36 266.985 35.8079 266.591 35.4238C266.197 35.0394 266 34.5732 266 34.025ZM268 34.05H284V33.1098C284 32.8466 283.922 32.6028 283.765 32.3786C283.609 32.1545 283.397 31.9717 283.128 31.83C281.979 31.2783 280.808 30.8604 279.614 30.5761C278.42 30.2921 277.216 30.15 276 30.15C274.784 30.15 273.58 30.2921 272.386 30.5761C271.192 30.8604 270.021 31.2783 268.872 31.83C268.603 31.9717 268.391 32.1545 268.235 32.3786C268.078 32.6028 268 32.8466 268 33.1098V34.05ZM276 24.1499C276.733 24.1499 277.361 23.8954 277.883 23.3862C278.406 22.877 278.667 22.265 278.667 21.55C278.667 20.835 278.406 20.2229 277.883 19.7137C277.361 19.2046 276.733 18.95 276 18.95C275.267 18.95 274.639 19.2046 274.117 19.7137C273.594 20.2229 273.333 20.835 273.333 21.55C273.333 22.265 273.594 22.877 274.117 23.3862C274.639 23.8954 275.267 24.1499 276 24.1499Z" fill="#9856EF"/>
<rect x="308" y="2" width="64" height="48" rx="24" fill="white"/>
<path d="M339.488 31.4108C339.789 31.4108 340.043 31.3071 340.25 31.0997C340.457 30.8922 340.561 30.6381 340.561 30.3374C340.561 30.0368 340.457 29.783 340.249 29.5758C340.042 29.3688 339.788 29.2653 339.487 29.2653C339.187 29.2653 338.933 29.369 338.726 29.5766C338.519 29.7841 338.415 30.0382 338.415 30.3387C338.415 30.6392 338.519 30.8931 338.726 31.1003C338.934 31.3073 339.188 31.4108 339.488 31.4108ZM339.502 35.5C338.119 35.5 336.819 35.2375 335.602 34.7126C334.385 34.1877 333.326 33.4754 332.426 32.5755C331.526 31.6757 330.813 30.6175 330.288 29.4011C329.763 28.1846 329.5 26.8848 329.5 25.5018C329.5 24.1187 329.762 22.8186 330.287 21.6016C330.812 20.3846 331.525 19.326 332.424 18.4258C333.324 17.5256 334.382 16.8129 335.599 16.2876C336.815 15.7625 338.115 15.5 339.498 15.5C340.881 15.5 342.181 15.7625 343.398 16.2874C344.615 16.8123 345.674 17.5246 346.574 18.4245C347.474 19.3243 348.187 20.3825 348.712 21.5989C349.237 22.8154 349.5 24.1152 349.5 25.4982C349.5 26.8813 349.238 28.1814 348.713 29.3984C348.188 30.6154 347.475 31.674 346.576 32.5742C345.676 33.4744 344.618 34.1871 343.401 34.7124C342.185 35.2375 340.885 35.5 339.502 35.5ZM339.5 33.9211C341.851 33.9211 343.842 33.1053 345.474 31.4737C347.105 29.8421 347.921 27.8509 347.921 25.5C347.921 23.1491 347.105 21.1579 345.474 19.5263C343.842 17.8947 341.851 17.0789 339.5 17.0789C337.149 17.0789 335.158 17.8947 333.526 19.5263C331.895 21.1579 331.079 23.1491 331.079 25.5C331.079 27.8509 331.895 29.8421 333.526 31.4737C335.158 33.1053 337.149 33.9211 339.5 33.9211ZM339.585 20.9939C340.071 20.9939 340.491 21.1468 340.846 21.4526C341.201 21.7584 341.379 22.1406 341.379 22.5992C341.379 22.9852 341.265 23.3306 341.038 23.6355C340.812 23.9406 340.553 24.2247 340.261 24.4879C339.879 24.8268 339.543 25.1997 339.252 25.6066C338.961 26.0132 338.806 26.4662 338.786 26.9655C338.779 27.1573 338.846 27.3179 338.988 27.4474C339.13 27.5768 339.295 27.6416 339.484 27.6416C339.686 27.6416 339.858 27.5741 339.998 27.4392C340.138 27.3043 340.228 27.139 340.267 26.9434C340.337 26.5817 340.487 26.2595 340.716 25.9768C340.944 25.694 341.192 25.4252 341.459 25.1703C341.843 24.7962 342.177 24.3885 342.463 23.9471C342.75 23.5055 342.893 23.0131 342.893 22.4697C342.893 21.6357 342.564 20.9504 341.907 20.4139C341.25 19.8776 340.482 19.6095 339.605 19.6095C338.979 19.6095 338.389 19.7481 337.834 20.0253C337.279 20.3026 336.848 20.7072 336.538 21.2389C336.443 21.4023 336.412 21.5741 336.446 21.7545C336.481 21.935 336.573 22.072 336.724 22.1655C336.916 22.2724 337.113 22.3029 337.316 22.2571C337.518 22.2111 337.69 22.0958 337.832 21.9111C338.045 21.6344 338.303 21.4124 338.606 21.245C338.909 21.0776 339.236 20.9939 339.585 20.9939Z" fill="#9856EF"/>
<rect x="372" y="2" width="64" height="48" rx="24" fill="white"/>
<path d="M398.428 35.5C397.889 35.5 397.433 35.3158 397.06 34.9474C396.687 34.5789 396.5 34.1289 396.5 33.5971V21.6134C396.5 21.0817 396.687 20.6316 397.06 20.2632C397.433 19.8947 397.889 19.7105 398.428 19.7105H400.5V19.4474C400.5 18.357 400.89 17.4265 401.671 16.6558C402.452 15.8853 403.395 15.5 404.5 15.5C405.605 15.5 406.548 15.8853 407.329 16.6558C408.11 17.4265 408.5 18.357 408.5 19.4474V19.7105H410.572C411.111 19.7105 411.567 19.8947 411.94 20.2632C412.313 20.6316 412.5 21.0817 412.5 21.6134V33.5971C412.5 34.1289 412.313 34.5789 411.94 34.9474C411.567 35.3158 411.111 35.5 410.572 35.5H398.428ZM398.428 33.9211H410.572C410.654 33.9211 410.729 33.8873 410.797 33.8197C410.866 33.7524 410.9 33.6782 410.9 33.5971V21.6134C410.9 21.5324 410.866 21.4582 410.797 21.3908C410.729 21.3232 410.654 21.2895 410.572 21.2895H408.5V23.6579C408.5 23.8819 408.423 24.0695 408.27 24.2205C408.117 24.3718 407.927 24.4474 407.7 24.4474C407.473 24.4474 407.283 24.3718 407.13 24.2205C406.977 24.0695 406.9 23.8819 406.9 23.6579V21.2895H402.1V23.6579C402.1 23.8819 402.023 24.0695 401.87 24.2205C401.717 24.3718 401.527 24.4474 401.3 24.4474C401.073 24.4474 400.883 24.3718 400.73 24.2205C400.577 24.0695 400.5 23.8819 400.5 23.6579V21.2895H398.428C398.346 21.2895 398.271 21.3232 398.203 21.3908C398.134 21.4582 398.1 21.5324 398.1 21.6134V33.5971C398.1 33.6782 398.134 33.7524 398.203 33.8197C398.271 33.8873 398.346 33.9211 398.428 33.9211ZM402.1 19.7105H406.9V19.4474C406.9 18.7875 406.667 18.2278 406.202 17.7682C405.736 17.3087 405.169 17.0789 404.5 17.0789C403.831 17.0789 403.264 17.3087 402.798 17.7682C402.333 18.2278 402.1 18.7875 402.1 19.4474V19.7105Z" fill="#9856EF"/>
</svg>
